%TF.GenerationSoftware,KiCad,Pcbnew,8.0.8*%
%TF.CreationDate,2025-06-16T12:41:12-07:00*%
%TF.ProjectId,lmr51635,6c6d7235-3136-4333-952e-6b696361645f,rev?*%
%TF.SameCoordinates,Original*%
%TF.FileFunction,Soldermask,Bot*%
%TF.FilePolarity,Negative*%
%FSLAX46Y46*%
G04 Gerber Fmt 4.6, Leading zero omitted, Abs format (unit mm)*
G04 Created by KiCad (PCBNEW 8.0.8) date 2025-06-16 12:41:12*
%MOMM*%
%LPD*%
G01*
G04 APERTURE LIST*
%ADD10R,1.000000X1.000000*%
%ADD11C,0.700000*%
%ADD12C,4.400000*%
G04 APERTURE END LIST*
D10*
%TO.C,*%
X144880000Y-116490000D03*
%TD*%
%TO.C,*%
X102260000Y-116410000D03*
%TD*%
D11*
%TO.C,H2*%
X102350000Y-121000000D03*
X102833274Y-119833274D03*
X102833274Y-122166726D03*
X104000000Y-119350000D03*
D12*
X104000000Y-121000000D03*
D11*
X104000000Y-122650000D03*
X105166726Y-119833274D03*
X105166726Y-122166726D03*
X105650000Y-121000000D03*
%TD*%
D10*
%TO.C,*%
X102280000Y-111360000D03*
%TD*%
D11*
%TO.C,H1*%
X102350000Y-106850000D03*
X102833274Y-105683274D03*
X102833274Y-108016726D03*
X104000000Y-105200000D03*
D12*
X104000000Y-106850000D03*
D11*
X104000000Y-108500000D03*
X105166726Y-105683274D03*
X105166726Y-108016726D03*
X105650000Y-106850000D03*
%TD*%
D10*
%TO.C,*%
X144900000Y-111480000D03*
%TD*%
D11*
%TO.C,H4*%
X141350000Y-106800000D03*
X141833274Y-105633274D03*
X141833274Y-107966726D03*
X143000000Y-105150000D03*
D12*
X143000000Y-106800000D03*
D11*
X143000000Y-108450000D03*
X144166726Y-105633274D03*
X144166726Y-107966726D03*
X144650000Y-106800000D03*
%TD*%
%TO.C,H3*%
X141383274Y-121166726D03*
X141866548Y-120000000D03*
X141866548Y-122333452D03*
X143033274Y-119516726D03*
D12*
X143033274Y-121166726D03*
D11*
X143033274Y-122816726D03*
X144200000Y-120000000D03*
X144200000Y-122333452D03*
X144683274Y-121166726D03*
%TD*%
M02*
