%TF.GenerationSoftware,KiCad,Pcbnew,8.0.8*%
%TF.CreationDate,2025-06-16T12:41:12-07:00*%
%TF.ProjectId,lmr51635,6c6d7235-3136-4333-952e-6b696361645f,rev?*%
%TF.SameCoordinates,Original*%
%TF.FileFunction,Legend,Top*%
%TF.FilePolarity,Positive*%
%FSLAX46Y46*%
G04 Gerber Fmt 4.6, Leading zero omitted, Abs format (unit mm)*
G04 Created by KiCad (PCBNEW 8.0.8) date 2025-06-16 12:41:12*
%MOMM*%
%LPD*%
G01*
G04 APERTURE LIST*
%ADD10C,0.080000*%
%ADD11C,0.100000*%
%ADD12C,0.150000*%
%ADD13C,0.254000*%
%ADD14C,0.120000*%
%ADD15C,0.250000*%
%ADD16C,0.200000*%
G04 APERTURE END LIST*
D10*
X109599524Y-105474663D02*
X109361429Y-105474663D01*
X109361429Y-105474663D02*
X109361429Y-104974663D01*
X109766191Y-105474663D02*
X109766191Y-104974663D01*
X109766191Y-104974663D02*
X109932858Y-105331806D01*
X109932858Y-105331806D02*
X110099524Y-104974663D01*
X110099524Y-104974663D02*
X110099524Y-105474663D01*
X110623334Y-105474663D02*
X110456668Y-105236568D01*
X110337620Y-105474663D02*
X110337620Y-104974663D01*
X110337620Y-104974663D02*
X110528096Y-104974663D01*
X110528096Y-104974663D02*
X110575715Y-104998473D01*
X110575715Y-104998473D02*
X110599525Y-105022282D01*
X110599525Y-105022282D02*
X110623334Y-105069901D01*
X110623334Y-105069901D02*
X110623334Y-105141330D01*
X110623334Y-105141330D02*
X110599525Y-105188949D01*
X110599525Y-105188949D02*
X110575715Y-105212758D01*
X110575715Y-105212758D02*
X110528096Y-105236568D01*
X110528096Y-105236568D02*
X110337620Y-105236568D01*
X111075715Y-104974663D02*
X110837620Y-104974663D01*
X110837620Y-104974663D02*
X110813811Y-105212758D01*
X110813811Y-105212758D02*
X110837620Y-105188949D01*
X110837620Y-105188949D02*
X110885239Y-105165139D01*
X110885239Y-105165139D02*
X111004287Y-105165139D01*
X111004287Y-105165139D02*
X111051906Y-105188949D01*
X111051906Y-105188949D02*
X111075715Y-105212758D01*
X111075715Y-105212758D02*
X111099525Y-105260377D01*
X111099525Y-105260377D02*
X111099525Y-105379425D01*
X111099525Y-105379425D02*
X111075715Y-105427044D01*
X111075715Y-105427044D02*
X111051906Y-105450854D01*
X111051906Y-105450854D02*
X111004287Y-105474663D01*
X111004287Y-105474663D02*
X110885239Y-105474663D01*
X110885239Y-105474663D02*
X110837620Y-105450854D01*
X110837620Y-105450854D02*
X110813811Y-105427044D01*
X111575715Y-105474663D02*
X111290001Y-105474663D01*
X111432858Y-105474663D02*
X111432858Y-104974663D01*
X111432858Y-104974663D02*
X111385239Y-105046092D01*
X111385239Y-105046092D02*
X111337620Y-105093711D01*
X111337620Y-105093711D02*
X111290001Y-105117520D01*
X112004286Y-104974663D02*
X111909048Y-104974663D01*
X111909048Y-104974663D02*
X111861429Y-104998473D01*
X111861429Y-104998473D02*
X111837619Y-105022282D01*
X111837619Y-105022282D02*
X111790000Y-105093711D01*
X111790000Y-105093711D02*
X111766191Y-105188949D01*
X111766191Y-105188949D02*
X111766191Y-105379425D01*
X111766191Y-105379425D02*
X111790000Y-105427044D01*
X111790000Y-105427044D02*
X111813810Y-105450854D01*
X111813810Y-105450854D02*
X111861429Y-105474663D01*
X111861429Y-105474663D02*
X111956667Y-105474663D01*
X111956667Y-105474663D02*
X112004286Y-105450854D01*
X112004286Y-105450854D02*
X112028095Y-105427044D01*
X112028095Y-105427044D02*
X112051905Y-105379425D01*
X112051905Y-105379425D02*
X112051905Y-105260377D01*
X112051905Y-105260377D02*
X112028095Y-105212758D01*
X112028095Y-105212758D02*
X112004286Y-105188949D01*
X112004286Y-105188949D02*
X111956667Y-105165139D01*
X111956667Y-105165139D02*
X111861429Y-105165139D01*
X111861429Y-105165139D02*
X111813810Y-105188949D01*
X111813810Y-105188949D02*
X111790000Y-105212758D01*
X111790000Y-105212758D02*
X111766191Y-105260377D01*
X112218571Y-104974663D02*
X112528095Y-104974663D01*
X112528095Y-104974663D02*
X112361428Y-105165139D01*
X112361428Y-105165139D02*
X112432857Y-105165139D01*
X112432857Y-105165139D02*
X112480476Y-105188949D01*
X112480476Y-105188949D02*
X112504285Y-105212758D01*
X112504285Y-105212758D02*
X112528095Y-105260377D01*
X112528095Y-105260377D02*
X112528095Y-105379425D01*
X112528095Y-105379425D02*
X112504285Y-105427044D01*
X112504285Y-105427044D02*
X112480476Y-105450854D01*
X112480476Y-105450854D02*
X112432857Y-105474663D01*
X112432857Y-105474663D02*
X112290000Y-105474663D01*
X112290000Y-105474663D02*
X112242381Y-105450854D01*
X112242381Y-105450854D02*
X112218571Y-105427044D01*
X112980475Y-104974663D02*
X112742380Y-104974663D01*
X112742380Y-104974663D02*
X112718571Y-105212758D01*
X112718571Y-105212758D02*
X112742380Y-105188949D01*
X112742380Y-105188949D02*
X112789999Y-105165139D01*
X112789999Y-105165139D02*
X112909047Y-105165139D01*
X112909047Y-105165139D02*
X112956666Y-105188949D01*
X112956666Y-105188949D02*
X112980475Y-105212758D01*
X112980475Y-105212758D02*
X113004285Y-105260377D01*
X113004285Y-105260377D02*
X113004285Y-105379425D01*
X113004285Y-105379425D02*
X112980475Y-105427044D01*
X112980475Y-105427044D02*
X112956666Y-105450854D01*
X112956666Y-105450854D02*
X112909047Y-105474663D01*
X112909047Y-105474663D02*
X112789999Y-105474663D01*
X112789999Y-105474663D02*
X112742380Y-105450854D01*
X112742380Y-105450854D02*
X112718571Y-105427044D01*
X107742381Y-106017730D02*
X107813809Y-106041540D01*
X107813809Y-106041540D02*
X107837619Y-106065349D01*
X107837619Y-106065349D02*
X107861428Y-106112968D01*
X107861428Y-106112968D02*
X107861428Y-106184397D01*
X107861428Y-106184397D02*
X107837619Y-106232016D01*
X107837619Y-106232016D02*
X107813809Y-106255826D01*
X107813809Y-106255826D02*
X107766190Y-106279635D01*
X107766190Y-106279635D02*
X107575714Y-106279635D01*
X107575714Y-106279635D02*
X107575714Y-105779635D01*
X107575714Y-105779635D02*
X107742381Y-105779635D01*
X107742381Y-105779635D02*
X107790000Y-105803445D01*
X107790000Y-105803445D02*
X107813809Y-105827254D01*
X107813809Y-105827254D02*
X107837619Y-105874873D01*
X107837619Y-105874873D02*
X107837619Y-105922492D01*
X107837619Y-105922492D02*
X107813809Y-105970111D01*
X107813809Y-105970111D02*
X107790000Y-105993921D01*
X107790000Y-105993921D02*
X107742381Y-106017730D01*
X107742381Y-106017730D02*
X107575714Y-106017730D01*
X108075714Y-105779635D02*
X108075714Y-106184397D01*
X108075714Y-106184397D02*
X108099524Y-106232016D01*
X108099524Y-106232016D02*
X108123333Y-106255826D01*
X108123333Y-106255826D02*
X108170952Y-106279635D01*
X108170952Y-106279635D02*
X108266190Y-106279635D01*
X108266190Y-106279635D02*
X108313809Y-106255826D01*
X108313809Y-106255826D02*
X108337619Y-106232016D01*
X108337619Y-106232016D02*
X108361428Y-106184397D01*
X108361428Y-106184397D02*
X108361428Y-105779635D01*
X108885238Y-106232016D02*
X108861429Y-106255826D01*
X108861429Y-106255826D02*
X108790000Y-106279635D01*
X108790000Y-106279635D02*
X108742381Y-106279635D01*
X108742381Y-106279635D02*
X108670953Y-106255826D01*
X108670953Y-106255826D02*
X108623334Y-106208206D01*
X108623334Y-106208206D02*
X108599524Y-106160587D01*
X108599524Y-106160587D02*
X108575715Y-106065349D01*
X108575715Y-106065349D02*
X108575715Y-105993921D01*
X108575715Y-105993921D02*
X108599524Y-105898683D01*
X108599524Y-105898683D02*
X108623334Y-105851064D01*
X108623334Y-105851064D02*
X108670953Y-105803445D01*
X108670953Y-105803445D02*
X108742381Y-105779635D01*
X108742381Y-105779635D02*
X108790000Y-105779635D01*
X108790000Y-105779635D02*
X108861429Y-105803445D01*
X108861429Y-105803445D02*
X108885238Y-105827254D01*
X109099524Y-106279635D02*
X109099524Y-105779635D01*
X109385238Y-106279635D02*
X109170953Y-105993921D01*
X109385238Y-105779635D02*
X109099524Y-106065349D01*
X110266190Y-106232016D02*
X110242381Y-106255826D01*
X110242381Y-106255826D02*
X110170952Y-106279635D01*
X110170952Y-106279635D02*
X110123333Y-106279635D01*
X110123333Y-106279635D02*
X110051905Y-106255826D01*
X110051905Y-106255826D02*
X110004286Y-106208206D01*
X110004286Y-106208206D02*
X109980476Y-106160587D01*
X109980476Y-106160587D02*
X109956667Y-106065349D01*
X109956667Y-106065349D02*
X109956667Y-105993921D01*
X109956667Y-105993921D02*
X109980476Y-105898683D01*
X109980476Y-105898683D02*
X110004286Y-105851064D01*
X110004286Y-105851064D02*
X110051905Y-105803445D01*
X110051905Y-105803445D02*
X110123333Y-105779635D01*
X110123333Y-105779635D02*
X110170952Y-105779635D01*
X110170952Y-105779635D02*
X110242381Y-105803445D01*
X110242381Y-105803445D02*
X110266190Y-105827254D01*
X110575714Y-105779635D02*
X110670952Y-105779635D01*
X110670952Y-105779635D02*
X110718571Y-105803445D01*
X110718571Y-105803445D02*
X110766190Y-105851064D01*
X110766190Y-105851064D02*
X110790000Y-105946302D01*
X110790000Y-105946302D02*
X110790000Y-106112968D01*
X110790000Y-106112968D02*
X110766190Y-106208206D01*
X110766190Y-106208206D02*
X110718571Y-106255826D01*
X110718571Y-106255826D02*
X110670952Y-106279635D01*
X110670952Y-106279635D02*
X110575714Y-106279635D01*
X110575714Y-106279635D02*
X110528095Y-106255826D01*
X110528095Y-106255826D02*
X110480476Y-106208206D01*
X110480476Y-106208206D02*
X110456667Y-106112968D01*
X110456667Y-106112968D02*
X110456667Y-105946302D01*
X110456667Y-105946302D02*
X110480476Y-105851064D01*
X110480476Y-105851064D02*
X110528095Y-105803445D01*
X110528095Y-105803445D02*
X110575714Y-105779635D01*
X111004286Y-106279635D02*
X111004286Y-105779635D01*
X111004286Y-105779635D02*
X111290000Y-106279635D01*
X111290000Y-106279635D02*
X111290000Y-105779635D01*
X111456668Y-105779635D02*
X111623334Y-106279635D01*
X111623334Y-106279635D02*
X111790001Y-105779635D01*
X111956667Y-106017730D02*
X112123334Y-106017730D01*
X112194762Y-106279635D02*
X111956667Y-106279635D01*
X111956667Y-106279635D02*
X111956667Y-105779635D01*
X111956667Y-105779635D02*
X112194762Y-105779635D01*
X112694762Y-106279635D02*
X112528096Y-106041540D01*
X112409048Y-106279635D02*
X112409048Y-105779635D01*
X112409048Y-105779635D02*
X112599524Y-105779635D01*
X112599524Y-105779635D02*
X112647143Y-105803445D01*
X112647143Y-105803445D02*
X112670953Y-105827254D01*
X112670953Y-105827254D02*
X112694762Y-105874873D01*
X112694762Y-105874873D02*
X112694762Y-105946302D01*
X112694762Y-105946302D02*
X112670953Y-105993921D01*
X112670953Y-105993921D02*
X112647143Y-106017730D01*
X112647143Y-106017730D02*
X112599524Y-106041540D01*
X112599524Y-106041540D02*
X112409048Y-106041540D01*
X112837620Y-105779635D02*
X113123334Y-105779635D01*
X112980477Y-106279635D02*
X112980477Y-105779635D01*
X113290000Y-106017730D02*
X113456667Y-106017730D01*
X113528095Y-106279635D02*
X113290000Y-106279635D01*
X113290000Y-106279635D02*
X113290000Y-105779635D01*
X113290000Y-105779635D02*
X113528095Y-105779635D01*
X114028095Y-106279635D02*
X113861429Y-106041540D01*
X113742381Y-106279635D02*
X113742381Y-105779635D01*
X113742381Y-105779635D02*
X113932857Y-105779635D01*
X113932857Y-105779635D02*
X113980476Y-105803445D01*
X113980476Y-105803445D02*
X114004286Y-105827254D01*
X114004286Y-105827254D02*
X114028095Y-105874873D01*
X114028095Y-105874873D02*
X114028095Y-105946302D01*
X114028095Y-105946302D02*
X114004286Y-105993921D01*
X114004286Y-105993921D02*
X113980476Y-106017730D01*
X113980476Y-106017730D02*
X113932857Y-106041540D01*
X113932857Y-106041540D02*
X113742381Y-106041540D01*
D11*
X140454360Y-116052475D02*
X140644836Y-116052475D01*
X140644836Y-116052475D02*
X140740074Y-116100094D01*
X140740074Y-116100094D02*
X140835312Y-116195332D01*
X140835312Y-116195332D02*
X140882931Y-116385808D01*
X140882931Y-116385808D02*
X140882931Y-116719141D01*
X140882931Y-116719141D02*
X140835312Y-116909617D01*
X140835312Y-116909617D02*
X140740074Y-117004856D01*
X140740074Y-117004856D02*
X140644836Y-117052475D01*
X140644836Y-117052475D02*
X140454360Y-117052475D01*
X140454360Y-117052475D02*
X140359122Y-117004856D01*
X140359122Y-117004856D02*
X140263884Y-116909617D01*
X140263884Y-116909617D02*
X140216265Y-116719141D01*
X140216265Y-116719141D02*
X140216265Y-116385808D01*
X140216265Y-116385808D02*
X140263884Y-116195332D01*
X140263884Y-116195332D02*
X140359122Y-116100094D01*
X140359122Y-116100094D02*
X140454360Y-116052475D01*
X141311503Y-116052475D02*
X141311503Y-116861998D01*
X141311503Y-116861998D02*
X141359122Y-116957236D01*
X141359122Y-116957236D02*
X141406741Y-117004856D01*
X141406741Y-117004856D02*
X141501979Y-117052475D01*
X141501979Y-117052475D02*
X141692455Y-117052475D01*
X141692455Y-117052475D02*
X141787693Y-117004856D01*
X141787693Y-117004856D02*
X141835312Y-116957236D01*
X141835312Y-116957236D02*
X141882931Y-116861998D01*
X141882931Y-116861998D02*
X141882931Y-116052475D01*
X142216265Y-116052475D02*
X142787693Y-116052475D01*
X142501979Y-117052475D02*
X142501979Y-116052475D01*
X143121027Y-116671522D02*
X143882932Y-116671522D01*
X140494360Y-110872419D02*
X140684836Y-110872419D01*
X140684836Y-110872419D02*
X140780074Y-110920038D01*
X140780074Y-110920038D02*
X140875312Y-111015276D01*
X140875312Y-111015276D02*
X140922931Y-111205752D01*
X140922931Y-111205752D02*
X140922931Y-111539085D01*
X140922931Y-111539085D02*
X140875312Y-111729561D01*
X140875312Y-111729561D02*
X140780074Y-111824800D01*
X140780074Y-111824800D02*
X140684836Y-111872419D01*
X140684836Y-111872419D02*
X140494360Y-111872419D01*
X140494360Y-111872419D02*
X140399122Y-111824800D01*
X140399122Y-111824800D02*
X140303884Y-111729561D01*
X140303884Y-111729561D02*
X140256265Y-111539085D01*
X140256265Y-111539085D02*
X140256265Y-111205752D01*
X140256265Y-111205752D02*
X140303884Y-111015276D01*
X140303884Y-111015276D02*
X140399122Y-110920038D01*
X140399122Y-110920038D02*
X140494360Y-110872419D01*
X141351503Y-110872419D02*
X141351503Y-111681942D01*
X141351503Y-111681942D02*
X141399122Y-111777180D01*
X141399122Y-111777180D02*
X141446741Y-111824800D01*
X141446741Y-111824800D02*
X141541979Y-111872419D01*
X141541979Y-111872419D02*
X141732455Y-111872419D01*
X141732455Y-111872419D02*
X141827693Y-111824800D01*
X141827693Y-111824800D02*
X141875312Y-111777180D01*
X141875312Y-111777180D02*
X141922931Y-111681942D01*
X141922931Y-111681942D02*
X141922931Y-110872419D01*
X142256265Y-110872419D02*
X142827693Y-110872419D01*
X142541979Y-111872419D02*
X142541979Y-110872419D01*
X143161027Y-111491466D02*
X143922932Y-111491466D01*
X143541979Y-111872419D02*
X143541979Y-111110514D01*
X103293884Y-111972419D02*
X103293884Y-110972419D01*
X103770074Y-111972419D02*
X103770074Y-110972419D01*
X103770074Y-110972419D02*
X104341502Y-111972419D01*
X104341502Y-111972419D02*
X104341502Y-110972419D01*
X104817693Y-111591466D02*
X105579598Y-111591466D01*
X105198645Y-111972419D02*
X105198645Y-111210514D01*
X103253884Y-116882419D02*
X103253884Y-115882419D01*
X103730074Y-116882419D02*
X103730074Y-115882419D01*
X103730074Y-115882419D02*
X104301502Y-116882419D01*
X104301502Y-116882419D02*
X104301502Y-115882419D01*
X104777693Y-116501466D02*
X105539598Y-116501466D01*
D12*
X121613333Y-116524819D02*
X121280000Y-116048628D01*
X121041905Y-116524819D02*
X121041905Y-115524819D01*
X121041905Y-115524819D02*
X121422857Y-115524819D01*
X121422857Y-115524819D02*
X121518095Y-115572438D01*
X121518095Y-115572438D02*
X121565714Y-115620057D01*
X121565714Y-115620057D02*
X121613333Y-115715295D01*
X121613333Y-115715295D02*
X121613333Y-115858152D01*
X121613333Y-115858152D02*
X121565714Y-115953390D01*
X121565714Y-115953390D02*
X121518095Y-116001009D01*
X121518095Y-116001009D02*
X121422857Y-116048628D01*
X121422857Y-116048628D02*
X121041905Y-116048628D01*
X121994286Y-115620057D02*
X122041905Y-115572438D01*
X122041905Y-115572438D02*
X122137143Y-115524819D01*
X122137143Y-115524819D02*
X122375238Y-115524819D01*
X122375238Y-115524819D02*
X122470476Y-115572438D01*
X122470476Y-115572438D02*
X122518095Y-115620057D01*
X122518095Y-115620057D02*
X122565714Y-115715295D01*
X122565714Y-115715295D02*
X122565714Y-115810533D01*
X122565714Y-115810533D02*
X122518095Y-115953390D01*
X122518095Y-115953390D02*
X121946667Y-116524819D01*
X121946667Y-116524819D02*
X122565714Y-116524819D01*
X108709580Y-116241666D02*
X108757200Y-116289285D01*
X108757200Y-116289285D02*
X108804819Y-116432142D01*
X108804819Y-116432142D02*
X108804819Y-116527380D01*
X108804819Y-116527380D02*
X108757200Y-116670237D01*
X108757200Y-116670237D02*
X108661961Y-116765475D01*
X108661961Y-116765475D02*
X108566723Y-116813094D01*
X108566723Y-116813094D02*
X108376247Y-116860713D01*
X108376247Y-116860713D02*
X108233390Y-116860713D01*
X108233390Y-116860713D02*
X108042914Y-116813094D01*
X108042914Y-116813094D02*
X107947676Y-116765475D01*
X107947676Y-116765475D02*
X107852438Y-116670237D01*
X107852438Y-116670237D02*
X107804819Y-116527380D01*
X107804819Y-116527380D02*
X107804819Y-116432142D01*
X107804819Y-116432142D02*
X107852438Y-116289285D01*
X107852438Y-116289285D02*
X107900057Y-116241666D01*
X107804819Y-115336904D02*
X107804819Y-115813094D01*
X107804819Y-115813094D02*
X108281009Y-115860713D01*
X108281009Y-115860713D02*
X108233390Y-115813094D01*
X108233390Y-115813094D02*
X108185771Y-115717856D01*
X108185771Y-115717856D02*
X108185771Y-115479761D01*
X108185771Y-115479761D02*
X108233390Y-115384523D01*
X108233390Y-115384523D02*
X108281009Y-115336904D01*
X108281009Y-115336904D02*
X108376247Y-115289285D01*
X108376247Y-115289285D02*
X108614342Y-115289285D01*
X108614342Y-115289285D02*
X108709580Y-115336904D01*
X108709580Y-115336904D02*
X108757200Y-115384523D01*
X108757200Y-115384523D02*
X108804819Y-115479761D01*
X108804819Y-115479761D02*
X108804819Y-115717856D01*
X108804819Y-115717856D02*
X108757200Y-115813094D01*
X108757200Y-115813094D02*
X108709580Y-115860713D01*
X125989580Y-118216666D02*
X126037200Y-118264285D01*
X126037200Y-118264285D02*
X126084819Y-118407142D01*
X126084819Y-118407142D02*
X126084819Y-118502380D01*
X126084819Y-118502380D02*
X126037200Y-118645237D01*
X126037200Y-118645237D02*
X125941961Y-118740475D01*
X125941961Y-118740475D02*
X125846723Y-118788094D01*
X125846723Y-118788094D02*
X125656247Y-118835713D01*
X125656247Y-118835713D02*
X125513390Y-118835713D01*
X125513390Y-118835713D02*
X125322914Y-118788094D01*
X125322914Y-118788094D02*
X125227676Y-118740475D01*
X125227676Y-118740475D02*
X125132438Y-118645237D01*
X125132438Y-118645237D02*
X125084819Y-118502380D01*
X125084819Y-118502380D02*
X125084819Y-118407142D01*
X125084819Y-118407142D02*
X125132438Y-118264285D01*
X125132438Y-118264285D02*
X125180057Y-118216666D01*
X126084819Y-117740475D02*
X126084819Y-117549999D01*
X126084819Y-117549999D02*
X126037200Y-117454761D01*
X126037200Y-117454761D02*
X125989580Y-117407142D01*
X125989580Y-117407142D02*
X125846723Y-117311904D01*
X125846723Y-117311904D02*
X125656247Y-117264285D01*
X125656247Y-117264285D02*
X125275295Y-117264285D01*
X125275295Y-117264285D02*
X125180057Y-117311904D01*
X125180057Y-117311904D02*
X125132438Y-117359523D01*
X125132438Y-117359523D02*
X125084819Y-117454761D01*
X125084819Y-117454761D02*
X125084819Y-117645237D01*
X125084819Y-117645237D02*
X125132438Y-117740475D01*
X125132438Y-117740475D02*
X125180057Y-117788094D01*
X125180057Y-117788094D02*
X125275295Y-117835713D01*
X125275295Y-117835713D02*
X125513390Y-117835713D01*
X125513390Y-117835713D02*
X125608628Y-117788094D01*
X125608628Y-117788094D02*
X125656247Y-117740475D01*
X125656247Y-117740475D02*
X125703866Y-117645237D01*
X125703866Y-117645237D02*
X125703866Y-117454761D01*
X125703866Y-117454761D02*
X125656247Y-117359523D01*
X125656247Y-117359523D02*
X125608628Y-117311904D01*
X125608628Y-117311904D02*
X125513390Y-117264285D01*
X119578095Y-121164819D02*
X119578095Y-121974342D01*
X119578095Y-121974342D02*
X119625714Y-122069580D01*
X119625714Y-122069580D02*
X119673333Y-122117200D01*
X119673333Y-122117200D02*
X119768571Y-122164819D01*
X119768571Y-122164819D02*
X119959047Y-122164819D01*
X119959047Y-122164819D02*
X120054285Y-122117200D01*
X120054285Y-122117200D02*
X120101904Y-122069580D01*
X120101904Y-122069580D02*
X120149523Y-121974342D01*
X120149523Y-121974342D02*
X120149523Y-121164819D01*
X120578095Y-121260057D02*
X120625714Y-121212438D01*
X120625714Y-121212438D02*
X120720952Y-121164819D01*
X120720952Y-121164819D02*
X120959047Y-121164819D01*
X120959047Y-121164819D02*
X121054285Y-121212438D01*
X121054285Y-121212438D02*
X121101904Y-121260057D01*
X121101904Y-121260057D02*
X121149523Y-121355295D01*
X121149523Y-121355295D02*
X121149523Y-121450533D01*
X121149523Y-121450533D02*
X121101904Y-121593390D01*
X121101904Y-121593390D02*
X120530476Y-122164819D01*
X120530476Y-122164819D02*
X121149523Y-122164819D01*
X115433333Y-113559580D02*
X115385714Y-113607200D01*
X115385714Y-113607200D02*
X115242857Y-113654819D01*
X115242857Y-113654819D02*
X115147619Y-113654819D01*
X115147619Y-113654819D02*
X115004762Y-113607200D01*
X115004762Y-113607200D02*
X114909524Y-113511961D01*
X114909524Y-113511961D02*
X114861905Y-113416723D01*
X114861905Y-113416723D02*
X114814286Y-113226247D01*
X114814286Y-113226247D02*
X114814286Y-113083390D01*
X114814286Y-113083390D02*
X114861905Y-112892914D01*
X114861905Y-112892914D02*
X114909524Y-112797676D01*
X114909524Y-112797676D02*
X115004762Y-112702438D01*
X115004762Y-112702438D02*
X115147619Y-112654819D01*
X115147619Y-112654819D02*
X115242857Y-112654819D01*
X115242857Y-112654819D02*
X115385714Y-112702438D01*
X115385714Y-112702438D02*
X115433333Y-112750057D01*
X116290476Y-112654819D02*
X116100000Y-112654819D01*
X116100000Y-112654819D02*
X116004762Y-112702438D01*
X116004762Y-112702438D02*
X115957143Y-112750057D01*
X115957143Y-112750057D02*
X115861905Y-112892914D01*
X115861905Y-112892914D02*
X115814286Y-113083390D01*
X115814286Y-113083390D02*
X115814286Y-113464342D01*
X115814286Y-113464342D02*
X115861905Y-113559580D01*
X115861905Y-113559580D02*
X115909524Y-113607200D01*
X115909524Y-113607200D02*
X116004762Y-113654819D01*
X116004762Y-113654819D02*
X116195238Y-113654819D01*
X116195238Y-113654819D02*
X116290476Y-113607200D01*
X116290476Y-113607200D02*
X116338095Y-113559580D01*
X116338095Y-113559580D02*
X116385714Y-113464342D01*
X116385714Y-113464342D02*
X116385714Y-113226247D01*
X116385714Y-113226247D02*
X116338095Y-113131009D01*
X116338095Y-113131009D02*
X116290476Y-113083390D01*
X116290476Y-113083390D02*
X116195238Y-113035771D01*
X116195238Y-113035771D02*
X116004762Y-113035771D01*
X116004762Y-113035771D02*
X115909524Y-113083390D01*
X115909524Y-113083390D02*
X115861905Y-113131009D01*
X115861905Y-113131009D02*
X115814286Y-113226247D01*
X109861905Y-111054819D02*
X109861905Y-110054819D01*
X109861905Y-110054819D02*
X110100000Y-110054819D01*
X110100000Y-110054819D02*
X110242857Y-110102438D01*
X110242857Y-110102438D02*
X110338095Y-110197676D01*
X110338095Y-110197676D02*
X110385714Y-110292914D01*
X110385714Y-110292914D02*
X110433333Y-110483390D01*
X110433333Y-110483390D02*
X110433333Y-110626247D01*
X110433333Y-110626247D02*
X110385714Y-110816723D01*
X110385714Y-110816723D02*
X110338095Y-110911961D01*
X110338095Y-110911961D02*
X110242857Y-111007200D01*
X110242857Y-111007200D02*
X110100000Y-111054819D01*
X110100000Y-111054819D02*
X109861905Y-111054819D01*
X111385714Y-111054819D02*
X110814286Y-111054819D01*
X111100000Y-111054819D02*
X111100000Y-110054819D01*
X111100000Y-110054819D02*
X111004762Y-110197676D01*
X111004762Y-110197676D02*
X110909524Y-110292914D01*
X110909524Y-110292914D02*
X110814286Y-110340533D01*
X111309580Y-116316666D02*
X111357200Y-116364285D01*
X111357200Y-116364285D02*
X111404819Y-116507142D01*
X111404819Y-116507142D02*
X111404819Y-116602380D01*
X111404819Y-116602380D02*
X111357200Y-116745237D01*
X111357200Y-116745237D02*
X111261961Y-116840475D01*
X111261961Y-116840475D02*
X111166723Y-116888094D01*
X111166723Y-116888094D02*
X110976247Y-116935713D01*
X110976247Y-116935713D02*
X110833390Y-116935713D01*
X110833390Y-116935713D02*
X110642914Y-116888094D01*
X110642914Y-116888094D02*
X110547676Y-116840475D01*
X110547676Y-116840475D02*
X110452438Y-116745237D01*
X110452438Y-116745237D02*
X110404819Y-116602380D01*
X110404819Y-116602380D02*
X110404819Y-116507142D01*
X110404819Y-116507142D02*
X110452438Y-116364285D01*
X110452438Y-116364285D02*
X110500057Y-116316666D01*
X110738152Y-115459523D02*
X111404819Y-115459523D01*
X110357200Y-115697618D02*
X111071485Y-115935713D01*
X111071485Y-115935713D02*
X111071485Y-115316666D01*
X125454819Y-112125594D02*
X124454819Y-112125594D01*
X124454819Y-112125594D02*
X124454819Y-111887499D01*
X124454819Y-111887499D02*
X124502438Y-111744642D01*
X124502438Y-111744642D02*
X124597676Y-111649404D01*
X124597676Y-111649404D02*
X124692914Y-111601785D01*
X124692914Y-111601785D02*
X124883390Y-111554166D01*
X124883390Y-111554166D02*
X125026247Y-111554166D01*
X125026247Y-111554166D02*
X125216723Y-111601785D01*
X125216723Y-111601785D02*
X125311961Y-111649404D01*
X125311961Y-111649404D02*
X125407200Y-111744642D01*
X125407200Y-111744642D02*
X125454819Y-111887499D01*
X125454819Y-111887499D02*
X125454819Y-112125594D01*
X124550057Y-111173213D02*
X124502438Y-111125594D01*
X124502438Y-111125594D02*
X124454819Y-111030356D01*
X124454819Y-111030356D02*
X124454819Y-110792261D01*
X124454819Y-110792261D02*
X124502438Y-110697023D01*
X124502438Y-110697023D02*
X124550057Y-110649404D01*
X124550057Y-110649404D02*
X124645295Y-110601785D01*
X124645295Y-110601785D02*
X124740533Y-110601785D01*
X124740533Y-110601785D02*
X124883390Y-110649404D01*
X124883390Y-110649404D02*
X125454819Y-111220832D01*
X125454819Y-111220832D02*
X125454819Y-110601785D01*
X115233333Y-107859580D02*
X115185714Y-107907200D01*
X115185714Y-107907200D02*
X115042857Y-107954819D01*
X115042857Y-107954819D02*
X114947619Y-107954819D01*
X114947619Y-107954819D02*
X114804762Y-107907200D01*
X114804762Y-107907200D02*
X114709524Y-107811961D01*
X114709524Y-107811961D02*
X114661905Y-107716723D01*
X114661905Y-107716723D02*
X114614286Y-107526247D01*
X114614286Y-107526247D02*
X114614286Y-107383390D01*
X114614286Y-107383390D02*
X114661905Y-107192914D01*
X114661905Y-107192914D02*
X114709524Y-107097676D01*
X114709524Y-107097676D02*
X114804762Y-107002438D01*
X114804762Y-107002438D02*
X114947619Y-106954819D01*
X114947619Y-106954819D02*
X115042857Y-106954819D01*
X115042857Y-106954819D02*
X115185714Y-107002438D01*
X115185714Y-107002438D02*
X115233333Y-107050057D01*
X115804762Y-107383390D02*
X115709524Y-107335771D01*
X115709524Y-107335771D02*
X115661905Y-107288152D01*
X115661905Y-107288152D02*
X115614286Y-107192914D01*
X115614286Y-107192914D02*
X115614286Y-107145295D01*
X115614286Y-107145295D02*
X115661905Y-107050057D01*
X115661905Y-107050057D02*
X115709524Y-107002438D01*
X115709524Y-107002438D02*
X115804762Y-106954819D01*
X115804762Y-106954819D02*
X115995238Y-106954819D01*
X115995238Y-106954819D02*
X116090476Y-107002438D01*
X116090476Y-107002438D02*
X116138095Y-107050057D01*
X116138095Y-107050057D02*
X116185714Y-107145295D01*
X116185714Y-107145295D02*
X116185714Y-107192914D01*
X116185714Y-107192914D02*
X116138095Y-107288152D01*
X116138095Y-107288152D02*
X116090476Y-107335771D01*
X116090476Y-107335771D02*
X115995238Y-107383390D01*
X115995238Y-107383390D02*
X115804762Y-107383390D01*
X115804762Y-107383390D02*
X115709524Y-107431009D01*
X115709524Y-107431009D02*
X115661905Y-107478628D01*
X115661905Y-107478628D02*
X115614286Y-107573866D01*
X115614286Y-107573866D02*
X115614286Y-107764342D01*
X115614286Y-107764342D02*
X115661905Y-107859580D01*
X115661905Y-107859580D02*
X115709524Y-107907200D01*
X115709524Y-107907200D02*
X115804762Y-107954819D01*
X115804762Y-107954819D02*
X115995238Y-107954819D01*
X115995238Y-107954819D02*
X116090476Y-107907200D01*
X116090476Y-107907200D02*
X116138095Y-107859580D01*
X116138095Y-107859580D02*
X116185714Y-107764342D01*
X116185714Y-107764342D02*
X116185714Y-107573866D01*
X116185714Y-107573866D02*
X116138095Y-107478628D01*
X116138095Y-107478628D02*
X116090476Y-107431009D01*
X116090476Y-107431009D02*
X115995238Y-107383390D01*
X115433333Y-110709580D02*
X115385714Y-110757200D01*
X115385714Y-110757200D02*
X115242857Y-110804819D01*
X115242857Y-110804819D02*
X115147619Y-110804819D01*
X115147619Y-110804819D02*
X115004762Y-110757200D01*
X115004762Y-110757200D02*
X114909524Y-110661961D01*
X114909524Y-110661961D02*
X114861905Y-110566723D01*
X114861905Y-110566723D02*
X114814286Y-110376247D01*
X114814286Y-110376247D02*
X114814286Y-110233390D01*
X114814286Y-110233390D02*
X114861905Y-110042914D01*
X114861905Y-110042914D02*
X114909524Y-109947676D01*
X114909524Y-109947676D02*
X115004762Y-109852438D01*
X115004762Y-109852438D02*
X115147619Y-109804819D01*
X115147619Y-109804819D02*
X115242857Y-109804819D01*
X115242857Y-109804819D02*
X115385714Y-109852438D01*
X115385714Y-109852438D02*
X115433333Y-109900057D01*
X115766667Y-109804819D02*
X116433333Y-109804819D01*
X116433333Y-109804819D02*
X116004762Y-110804819D01*
X115633333Y-121359580D02*
X115585714Y-121407200D01*
X115585714Y-121407200D02*
X115442857Y-121454819D01*
X115442857Y-121454819D02*
X115347619Y-121454819D01*
X115347619Y-121454819D02*
X115204762Y-121407200D01*
X115204762Y-121407200D02*
X115109524Y-121311961D01*
X115109524Y-121311961D02*
X115061905Y-121216723D01*
X115061905Y-121216723D02*
X115014286Y-121026247D01*
X115014286Y-121026247D02*
X115014286Y-120883390D01*
X115014286Y-120883390D02*
X115061905Y-120692914D01*
X115061905Y-120692914D02*
X115109524Y-120597676D01*
X115109524Y-120597676D02*
X115204762Y-120502438D01*
X115204762Y-120502438D02*
X115347619Y-120454819D01*
X115347619Y-120454819D02*
X115442857Y-120454819D01*
X115442857Y-120454819D02*
X115585714Y-120502438D01*
X115585714Y-120502438D02*
X115633333Y-120550057D01*
X116585714Y-121454819D02*
X116014286Y-121454819D01*
X116300000Y-121454819D02*
X116300000Y-120454819D01*
X116300000Y-120454819D02*
X116204762Y-120597676D01*
X116204762Y-120597676D02*
X116109524Y-120692914D01*
X116109524Y-120692914D02*
X116014286Y-120740533D01*
D13*
X127338333Y-123344318D02*
X126733571Y-123344318D01*
X126733571Y-123344318D02*
X126733571Y-122074318D01*
X128426905Y-123344318D02*
X127701190Y-123344318D01*
X128064047Y-123344318D02*
X128064047Y-122074318D01*
X128064047Y-122074318D02*
X127943095Y-122255746D01*
X127943095Y-122255746D02*
X127822143Y-122376699D01*
X127822143Y-122376699D02*
X127701190Y-122437175D01*
D12*
X117433333Y-121359580D02*
X117385714Y-121407200D01*
X117385714Y-121407200D02*
X117242857Y-121454819D01*
X117242857Y-121454819D02*
X117147619Y-121454819D01*
X117147619Y-121454819D02*
X117004762Y-121407200D01*
X117004762Y-121407200D02*
X116909524Y-121311961D01*
X116909524Y-121311961D02*
X116861905Y-121216723D01*
X116861905Y-121216723D02*
X116814286Y-121026247D01*
X116814286Y-121026247D02*
X116814286Y-120883390D01*
X116814286Y-120883390D02*
X116861905Y-120692914D01*
X116861905Y-120692914D02*
X116909524Y-120597676D01*
X116909524Y-120597676D02*
X117004762Y-120502438D01*
X117004762Y-120502438D02*
X117147619Y-120454819D01*
X117147619Y-120454819D02*
X117242857Y-120454819D01*
X117242857Y-120454819D02*
X117385714Y-120502438D01*
X117385714Y-120502438D02*
X117433333Y-120550057D01*
X117814286Y-120550057D02*
X117861905Y-120502438D01*
X117861905Y-120502438D02*
X117957143Y-120454819D01*
X117957143Y-120454819D02*
X118195238Y-120454819D01*
X118195238Y-120454819D02*
X118290476Y-120502438D01*
X118290476Y-120502438D02*
X118338095Y-120550057D01*
X118338095Y-120550057D02*
X118385714Y-120645295D01*
X118385714Y-120645295D02*
X118385714Y-120740533D01*
X118385714Y-120740533D02*
X118338095Y-120883390D01*
X118338095Y-120883390D02*
X117766667Y-121454819D01*
X117766667Y-121454819D02*
X118385714Y-121454819D01*
X125254819Y-109166666D02*
X124778628Y-109499999D01*
X125254819Y-109738094D02*
X124254819Y-109738094D01*
X124254819Y-109738094D02*
X124254819Y-109357142D01*
X124254819Y-109357142D02*
X124302438Y-109261904D01*
X124302438Y-109261904D02*
X124350057Y-109214285D01*
X124350057Y-109214285D02*
X124445295Y-109166666D01*
X124445295Y-109166666D02*
X124588152Y-109166666D01*
X124588152Y-109166666D02*
X124683390Y-109214285D01*
X124683390Y-109214285D02*
X124731009Y-109261904D01*
X124731009Y-109261904D02*
X124778628Y-109357142D01*
X124778628Y-109357142D02*
X124778628Y-109738094D01*
X124254819Y-108833332D02*
X124254819Y-108214285D01*
X124254819Y-108214285D02*
X124635771Y-108547618D01*
X124635771Y-108547618D02*
X124635771Y-108404761D01*
X124635771Y-108404761D02*
X124683390Y-108309523D01*
X124683390Y-108309523D02*
X124731009Y-108261904D01*
X124731009Y-108261904D02*
X124826247Y-108214285D01*
X124826247Y-108214285D02*
X125064342Y-108214285D01*
X125064342Y-108214285D02*
X125159580Y-108261904D01*
X125159580Y-108261904D02*
X125207200Y-108309523D01*
X125207200Y-108309523D02*
X125254819Y-108404761D01*
X125254819Y-108404761D02*
X125254819Y-108690475D01*
X125254819Y-108690475D02*
X125207200Y-108785713D01*
X125207200Y-108785713D02*
X125159580Y-108833332D01*
X113909580Y-116316666D02*
X113957200Y-116364285D01*
X113957200Y-116364285D02*
X114004819Y-116507142D01*
X114004819Y-116507142D02*
X114004819Y-116602380D01*
X114004819Y-116602380D02*
X113957200Y-116745237D01*
X113957200Y-116745237D02*
X113861961Y-116840475D01*
X113861961Y-116840475D02*
X113766723Y-116888094D01*
X113766723Y-116888094D02*
X113576247Y-116935713D01*
X113576247Y-116935713D02*
X113433390Y-116935713D01*
X113433390Y-116935713D02*
X113242914Y-116888094D01*
X113242914Y-116888094D02*
X113147676Y-116840475D01*
X113147676Y-116840475D02*
X113052438Y-116745237D01*
X113052438Y-116745237D02*
X113004819Y-116602380D01*
X113004819Y-116602380D02*
X113004819Y-116507142D01*
X113004819Y-116507142D02*
X113052438Y-116364285D01*
X113052438Y-116364285D02*
X113100057Y-116316666D01*
X113004819Y-115983332D02*
X113004819Y-115364285D01*
X113004819Y-115364285D02*
X113385771Y-115697618D01*
X113385771Y-115697618D02*
X113385771Y-115554761D01*
X113385771Y-115554761D02*
X113433390Y-115459523D01*
X113433390Y-115459523D02*
X113481009Y-115411904D01*
X113481009Y-115411904D02*
X113576247Y-115364285D01*
X113576247Y-115364285D02*
X113814342Y-115364285D01*
X113814342Y-115364285D02*
X113909580Y-115411904D01*
X113909580Y-115411904D02*
X113957200Y-115459523D01*
X113957200Y-115459523D02*
X114004819Y-115554761D01*
X114004819Y-115554761D02*
X114004819Y-115840475D01*
X114004819Y-115840475D02*
X113957200Y-115935713D01*
X113957200Y-115935713D02*
X113909580Y-115983332D01*
X121673333Y-115224819D02*
X121340000Y-114748628D01*
X121101905Y-115224819D02*
X121101905Y-114224819D01*
X121101905Y-114224819D02*
X121482857Y-114224819D01*
X121482857Y-114224819D02*
X121578095Y-114272438D01*
X121578095Y-114272438D02*
X121625714Y-114320057D01*
X121625714Y-114320057D02*
X121673333Y-114415295D01*
X121673333Y-114415295D02*
X121673333Y-114558152D01*
X121673333Y-114558152D02*
X121625714Y-114653390D01*
X121625714Y-114653390D02*
X121578095Y-114701009D01*
X121578095Y-114701009D02*
X121482857Y-114748628D01*
X121482857Y-114748628D02*
X121101905Y-114748628D01*
X122625714Y-115224819D02*
X122054286Y-115224819D01*
X122340000Y-115224819D02*
X122340000Y-114224819D01*
X122340000Y-114224819D02*
X122244762Y-114367676D01*
X122244762Y-114367676D02*
X122149524Y-114462914D01*
X122149524Y-114462914D02*
X122054286Y-114510533D01*
D14*
%TO.C,R2*%
X119626359Y-115620000D02*
X119933641Y-115620000D01*
X119626359Y-116380000D02*
X119933641Y-116380000D01*
%TO.C,C5*%
X107240000Y-118688748D02*
X107240000Y-120111252D01*
X109060000Y-118688748D02*
X109060000Y-120111252D01*
%TO.C,C9*%
X123690000Y-117909420D02*
X123690000Y-118190580D01*
X124710000Y-117909420D02*
X124710000Y-118190580D01*
D12*
%TO.C,U2*%
X120975012Y-117274999D02*
X121824998Y-117274999D01*
X120975012Y-120325001D02*
X121824998Y-120325001D01*
D15*
X119075006Y-117849999D02*
G75*
G02*
X118825004Y-117849999I-125001J0D01*
G01*
X118825004Y-117849999D02*
G75*
G02*
X119075006Y-117849999I125001J0D01*
G01*
D14*
%TO.C,C6*%
X119586252Y-111890000D02*
X118163748Y-111890000D01*
X119586252Y-113710000D02*
X118163748Y-113710000D01*
%TO.C,D1*%
X114110000Y-111550000D02*
X108600000Y-111550000D01*
X114110000Y-114850000D02*
X108600000Y-114850000D01*
X114110000Y-114850000D02*
X114110000Y-111550000D01*
%TO.C,C4*%
X109890000Y-118688748D02*
X109890000Y-120111252D01*
X111710000Y-118688748D02*
X111710000Y-120111252D01*
%TO.C,D2*%
X122665000Y-110787500D02*
X122665000Y-113072500D01*
X122665000Y-113072500D02*
X124135000Y-113072500D01*
X124135000Y-113072500D02*
X124135000Y-110787500D01*
%TO.C,C8*%
X119586252Y-106690000D02*
X118163748Y-106690000D01*
X119586252Y-108510000D02*
X118163748Y-108510000D01*
%TO.C,C7*%
X119586252Y-109290000D02*
X118163748Y-109290000D01*
X119586252Y-111110000D02*
X118163748Y-111110000D01*
%TO.C,C1*%
X115240000Y-118559420D02*
X115240000Y-118840580D01*
X116260000Y-118559420D02*
X116260000Y-118840580D01*
D16*
%TO.C,L1*%
X126550000Y-107200000D02*
X126550000Y-120700000D01*
X139050000Y-120700000D02*
X139050000Y-107200000D01*
D14*
%TO.C,C2*%
X117065000Y-118534420D02*
X117065000Y-118815580D01*
X118085000Y-118534420D02*
X118085000Y-118815580D01*
%TO.C,R3*%
X123020000Y-108736359D02*
X123020000Y-109043641D01*
X123780000Y-108736359D02*
X123780000Y-109043641D01*
%TO.C,C3*%
X112440000Y-118688748D02*
X112440000Y-120111252D01*
X114260000Y-118688748D02*
X114260000Y-120111252D01*
%TO.C,R1*%
X119953641Y-114420000D02*
X119646359Y-114420000D01*
X119953641Y-115180000D02*
X119646359Y-115180000D01*
%TD*%
M02*
