%TF.GenerationSoftware,KiCad,Pcbnew,8.0.8*%
%TF.CreationDate,2025-06-16T12:41:12-07:00*%
%TF.ProjectId,lmr51635,6c6d7235-3136-4333-952e-6b696361645f,rev?*%
%TF.SameCoordinates,Original*%
%TF.FileFunction,Soldermask,Top*%
%TF.FilePolarity,Negative*%
%FSLAX46Y46*%
G04 Gerber Fmt 4.6, Leading zero omitted, Abs format (unit mm)*
G04 Created by KiCad (PCBNEW 8.0.8) date 2025-06-16 12:41:12*
%MOMM*%
%LPD*%
G01*
G04 APERTURE LIST*
G04 Aperture macros list*
%AMRoundRect*
0 Rectangle with rounded corners*
0 $1 Rounding radius*
0 $2 $3 $4 $5 $6 $7 $8 $9 X,Y pos of 4 corners*
0 Add a 4 corners polygon primitive as box body*
4,1,4,$2,$3,$4,$5,$6,$7,$8,$9,$2,$3,0*
0 Add four circle primitives for the rounded corners*
1,1,$1+$1,$2,$3*
1,1,$1+$1,$4,$5*
1,1,$1+$1,$6,$7*
1,1,$1+$1,$8,$9*
0 Add four rect primitives between the rounded corners*
20,1,$1+$1,$2,$3,$4,$5,0*
20,1,$1+$1,$4,$5,$6,$7,0*
20,1,$1+$1,$6,$7,$8,$9,0*
20,1,$1+$1,$8,$9,$2,$3,0*%
G04 Aperture macros list end*
%ADD10R,1.000000X1.000000*%
%ADD11RoundRect,0.135000X-0.135000X-0.185000X0.135000X-0.185000X0.135000X0.185000X-0.135000X0.185000X0*%
%ADD12RoundRect,0.250000X-0.650000X0.325000X-0.650000X-0.325000X0.650000X-0.325000X0.650000X0.325000X0*%
%ADD13RoundRect,0.225000X-0.250000X0.225000X-0.250000X-0.225000X0.250000X-0.225000X0.250000X0.225000X0*%
%ADD14R,1.100000X0.599999*%
%ADD15RoundRect,0.250000X0.325000X0.650000X-0.325000X0.650000X-0.325000X-0.650000X0.325000X-0.650000X0*%
%ADD16RoundRect,0.250000X1.000000X0.650000X-1.000000X0.650000X-1.000000X-0.650000X1.000000X-0.650000X0*%
%ADD17C,0.700000*%
%ADD18C,4.400000*%
%ADD19RoundRect,0.218750X0.256250X-0.218750X0.256250X0.218750X-0.256250X0.218750X-0.256250X-0.218750X0*%
%ADD20R,4.900000X3.550000*%
%ADD21RoundRect,0.135000X-0.185000X0.135000X-0.185000X-0.135000X0.185000X-0.135000X0.185000X0.135000X0*%
%ADD22RoundRect,0.135000X0.135000X0.185000X-0.135000X0.185000X-0.135000X-0.185000X0.135000X-0.185000X0*%
G04 APERTURE END LIST*
D10*
%TO.C,*%
X144880000Y-116490000D03*
%TD*%
D11*
%TO.C,R2*%
X119270000Y-116000000D03*
X120290000Y-116000000D03*
%TD*%
D12*
%TO.C,C5*%
X108150000Y-117925000D03*
X108150000Y-120875000D03*
%TD*%
D10*
%TO.C,*%
X102260000Y-116410000D03*
%TD*%
D13*
%TO.C,C9*%
X124200000Y-117275000D03*
X124200000Y-118825000D03*
%TD*%
D14*
%TO.C,U2*%
X120050013Y-117849999D03*
X120050013Y-118800000D03*
X120050013Y-119750001D03*
X122749997Y-119750001D03*
X122749997Y-118800000D03*
X122749997Y-117849999D03*
%TD*%
D15*
%TO.C,C6*%
X120350000Y-112800000D03*
X117400000Y-112800000D03*
%TD*%
D16*
%TO.C,D1*%
X112600000Y-113200000D03*
X108600000Y-113200000D03*
%TD*%
D12*
%TO.C,C4*%
X110800000Y-117925000D03*
X110800000Y-120875000D03*
%TD*%
D17*
%TO.C,H2*%
X102350000Y-121000000D03*
X102833274Y-119833274D03*
X102833274Y-122166726D03*
X104000000Y-119350000D03*
D18*
X104000000Y-121000000D03*
D17*
X104000000Y-122650000D03*
X105166726Y-119833274D03*
X105166726Y-122166726D03*
X105650000Y-121000000D03*
%TD*%
D19*
%TO.C,D2*%
X123400000Y-112375000D03*
X123400000Y-110800000D03*
%TD*%
D15*
%TO.C,C8*%
X120350000Y-107600000D03*
X117400000Y-107600000D03*
%TD*%
D10*
%TO.C,*%
X102280000Y-111360000D03*
%TD*%
D15*
%TO.C,C7*%
X120350000Y-110200000D03*
X117400000Y-110200000D03*
%TD*%
D13*
%TO.C,C1*%
X115750000Y-117925000D03*
X115750000Y-119475000D03*
%TD*%
D17*
%TO.C,H1*%
X102350000Y-106850000D03*
X102833274Y-105683274D03*
X102833274Y-108016726D03*
X104000000Y-105200000D03*
D18*
X104000000Y-106850000D03*
D17*
X104000000Y-108500000D03*
X105166726Y-105683274D03*
X105166726Y-108016726D03*
X105650000Y-106850000D03*
%TD*%
D20*
%TO.C,L1*%
X132800000Y-119700000D03*
X132800000Y-108200000D03*
%TD*%
D13*
%TO.C,C2*%
X117575000Y-117900000D03*
X117575000Y-119450000D03*
%TD*%
D21*
%TO.C,R3*%
X123400000Y-108380000D03*
X123400000Y-109400000D03*
%TD*%
D10*
%TO.C,*%
X144900000Y-111480000D03*
%TD*%
D12*
%TO.C,C3*%
X113350000Y-117925000D03*
X113350000Y-120875000D03*
%TD*%
D17*
%TO.C,H4*%
X141350000Y-106800000D03*
X141833274Y-105633274D03*
X141833274Y-107966726D03*
X143000000Y-105150000D03*
D18*
X143000000Y-106800000D03*
D17*
X143000000Y-108450000D03*
X144166726Y-105633274D03*
X144166726Y-107966726D03*
X144650000Y-106800000D03*
%TD*%
D22*
%TO.C,R1*%
X120310000Y-114800000D03*
X119290000Y-114800000D03*
%TD*%
D17*
%TO.C,H3*%
X141383274Y-121166726D03*
X141866548Y-120000000D03*
X141866548Y-122333452D03*
X143033274Y-119516726D03*
D18*
X143033274Y-121166726D03*
D17*
X143033274Y-122816726D03*
X144200000Y-120000000D03*
X144200000Y-122333452D03*
X144683274Y-121166726D03*
%TD*%
M02*
